<?xml version="1.0" encoding="UTF-8" standalone="no"?>
<svg width="42px" height="42px" viewBox="0 0 42 42" version="1.1" xmlns="http://www.w3.org/2000/svg" xmlns:xlink="http://www.w3.org/1999/xlink">
    <!-- Generator: sketchtool 39.1 (31720) - http://www.bohemiancoding.com/sketch -->
    <title>9DF39300-6F99-452F-9F57-A12CF9DBA838</title>
    <desc>Created with sketchtool.</desc>
    <defs>
        <polygon id="path-1" points="6.65834523e-06 17.7707865 17.7707266 17.7707865 17.7707266 2.66333745e-05 6.65834523e-06 2.66333745e-05"></polygon>
    </defs>
    <g id="Symbols" stroke="none" stroke-width="1" fill="none" fill-rule="evenodd">
        <g id="Footer-Bar" transform="translate(-719.000000, -148.000000)">
            <g id="Footer">
                <g id="Facebook-Icon" transform="translate(720.000000, 149.000000)">
                    <circle id="Oval-2" stroke="#D0D0D0" cx="20" cy="20" r="20"></circle>
                    <g id="Page-1" transform="translate(11.111111, 11.111111)">
                        <mask id="mask-2" fill="white">
                            <use xlink:href="#path-1"></use>
                        </mask>
                        <g id="Clip-2"></g>
                        <path class="hestur" d="M16.7899526,2.66333745e-05 L0.980780691,2.66333745e-05 C0.439057844,2.66333745e-05 6.65834523e-06,0.439077819 6.65834523e-06,0.980800666 L6.65834523e-06,16.7899725 C6.65834523e-06,17.3316288 0.439057844,17.7708132 0.980780691,17.7708132 L9.49194174,17.7708132 L9.49194174,10.8890154 L7.17603662,10.8890154 L7.17603662,8.20703454 L9.49194174,8.20703454 L9.49194174,6.22917353 C9.49194174,3.93390928 10.8937894,2.68407158 12.9413633,2.68407158 C13.9222039,2.68407158 14.7651502,2.75704702 15.0107765,2.78967291 L15.0107765,5.18840782 L13.590685,5.18907366 C12.4771436,5.18907366 12.2614798,5.71821223 12.2614798,6.49470828 L12.2614798,8.20703454 L14.9172934,8.20703454 L14.5715256,10.8890154 L12.2614798,10.8890154 L12.2614798,17.7708132 L16.7899526,17.7708132 C17.3316088,17.7708132 17.7707266,17.3316288 17.7707266,16.7899725 L17.7707266,0.980800666 C17.7707266,0.439077819 17.3316088,2.66333745e-05 16.7899526,2.66333745e-05" id="Fill-1" fill="#D0D0D0" mask="url(#mask-2)"></path>
                    </g>
                </g>
            </g>
        </g>
    </g>
</svg>
