<svg id="Layer_1" data-name="Layer 1" xmlns="http://www.w3.org/2000/svg" xmlns:xlink="http://www.w3.org/1999/xlink" viewBox="0 0 42 42"><defs><style>.cls-1{fill:#fff;}.cls-2{fill:none;stroke:#d0d0d0;}.cls-3{mask:url(#mask);}.cls-4{fill:#d0d0d0;}</style><mask id="mask" x="12.11" y="12.11" width="17.77" height="17.77" maskUnits="userSpaceOnUse"><g id="mask-2"><polygon id="path-1" class="cls-1" points="12.11 29.88 29.88 29.88 29.88 12.11 12.11 12.11 12.11 29.88"/></g></mask></defs><title>Artboard 1</title><g id="Symbols"><g id="Footer-Bar"><g id="Footer"><g id="Facebook-Icon"><circle id="Oval-2" class="cls-2" cx="21" cy="21" r="20"/><g id="Page-1"><g class="cls-3"><path id="Fill-1" class="cls-4" d="M28.9,12.11H13.09a1,1,0,0,0-1,1V28.9a1,1,0,0,0,1,1H21.6V23H19.29V20.32H21.6v-2a3.23,3.23,0,0,1,3.45-3.55,19,19,0,0,1,2.07.11v2.4H25.7c-1.11,0-1.33.53-1.33,1.31v1.71H27L26.68,23H24.37v6.88H28.9a1,1,0,0,0,1-1V13.09a1,1,0,0,0-1-1"/></g></g></g></g></g></g></svg>