<?xml version="1.0" encoding="UTF-8" standalone="no"?>
<svg width="133px" height="25px" viewBox="0 0 133 25" version="1.1" xmlns="http://www.w3.org/2000/svg" xmlns:xlink="http://www.w3.org/1999/xlink">
    <!-- Generator: sketchtool 39.1 (31720) - http://www.bohemiancoding.com/sketch -->
    <title>342FF11B-44C5-4514-9421-07F390550A30</title>
    <desc>Created with sketchtool.</desc>
    <defs></defs>
    <g id="Symbols" stroke="none" stroke-width="1" fill="none" fill-rule="evenodd">
        <g id="Logotype" fill="#000000">
            <g>
                <path d="M8.18678445,19.9722222 L8.01759717,20.3611111 C6.83328622,23.3611111 5.70537102,24.2777778 4.38007067,24.4166667 C4.74664311,24.0833333 5.08501767,23.5277778 5.08501767,22.8055556 C5.08501767,21.7777778 4.29547703,21 3.30855124,21 C2.12424028,21 1.44749117,21.9444444 1.44749117,22.8611111 C1.44749117,24.1666667 2.40621908,25 4.04169611,25 C5.64897527,25 7.1434629,24.0277778 8.52515901,20.7222222 L13.459788,9.05555556 C14.0237456,7.66666667 14.9542756,7.05555556 16.0821908,6.94444444 L16.0821908,6.61111111 L10.64,6.61111111 L10.64,6.94444444 C12.6984452,7.22222222 13.1496113,7.88888889 12.3882686,9.77777778 L9.935053,15.8888889 L6.69229682,8.44444444 C6.26932862,7.47222222 6.55130742,7.08333333 8.15858657,6.94444444 L8.15858657,6.61111111 L0.404169611,6.61111111 L0.404169611,6.94444444 C1.78586572,7.13888889 2.20883392,7.44444444 2.82918728,8.77777778 L8.18678445,19.9722222 Z M21.2142049,19.6666667 C23.0188693,19.6666667 24.5697527,18.6666667 25.7540636,16.8055556 L25.7540636,19.4444444 L31.3936396,19.4444444 L31.3936396,19.1111111 C29.8145583,19.0555556 29.4479859,18.8333333 29.4479859,18.0555556 L29.4479859,6.55555556 L23.7238163,6.66666667 L23.7238163,7 C25.2746996,7.05555556 25.6976678,7.52777778 25.6976678,8.36111111 L25.6976678,16.1944444 C24.964523,17.3333333 24.2031802,17.9444444 23.1880565,17.9444444 C21.7499647,17.9444444 21.1296113,17 21.1296113,15.2777778 L21.1296113,6.55555556 L15.4336396,6.66666667 L15.4336396,7 C17.0409187,7.02777778 17.3792933,7.52777778 17.3792933,8.36111111 L17.3792933,15.6111111 C17.3792933,18.3055556 18.845583,19.6666667 21.2142049,19.6666667 L21.2142049,19.6666667 Z M40.8399293,19.4444444 L47.5228269,19.4444444 L47.5228269,19.1111111 C46.3385159,19.0833333 46.0283392,18.8611111 46.0283392,18.0833333 L46.0283392,10.3888889 C46.0283392,10.2777778 46.0283392,10.1388889 46.0001413,9.94444444 C46.8178799,8.75 47.7766078,8.11111111 48.5097527,8.11111111 C49.9196466,8.11111111 50.4554064,9.08333333 50.4554064,10.75 L50.4554064,18.0833333 C50.4554064,18.8611111 50.2016254,19.0833333 49.0737102,19.1111111 L49.0737102,19.4444444 L56.1513781,19.4444444 L56.1513781,19.1111111 C54.5159011,19.0833333 54.2057244,18.8611111 54.2057244,18.0833333 L54.2057244,10.4722222 C54.2057244,7.86111111 53.0214134,6.47222222 50.6527915,6.47222222 C48.904523,6.47222222 47.0998587,7.63888889 45.9437456,9.36111111 C45.6335689,7.47222222 44.4774558,6.47222222 42.5036042,6.47222222 C40.6425442,6.47222222 39.035265,7.55555556 37.8227562,9.33333333 L37.8227562,6.55555556 L32.1549823,6.80555556 L32.1549823,7.13888889 C33.7904594,7.16666667 34.1288339,7.69444444 34.1288339,8.52777778 L34.1288339,18.0833333 C34.1288339,18.8611111 33.7904594,19.0833333 32.1549823,19.1111111 L32.1549823,19.4444444 L39.2326502,19.4444444 L39.2326502,19.1111111 C38.104735,19.0833333 37.8791519,18.8611111 37.8791519,18.0833333 L37.8791519,9.94444444 C38.6122968,8.83333333 39.2326502,8.11111111 40.2477739,8.11111111 C41.6576678,8.11111111 42.2780212,9.08333333 42.2780212,10.75 L42.2780212,18.0833333 C42.2780212,18.8611111 41.9960424,19.0833333 40.8399293,19.1111111 L40.8399293,19.4444444 Z M84.6030389,19.9722222 L84.4338516,20.3611111 C83.2495406,23.3611111 82.1216254,24.2777778 80.7963251,24.4166667 C81.1628975,24.0833333 81.5012721,23.5277778 81.5012721,22.8055556 C81.5012721,21.7777778 80.7117314,21 79.7248057,21 C78.5404947,21 77.8637456,21.9444444 77.8637456,22.8611111 C77.8637456,24.1666667 78.8224735,25 80.4579505,25 C82.0652297,25 83.5597173,24.0277778 84.9414134,20.7222222 L89.8760424,9.05555556 C90.44,7.66666667 91.37053,7.05555556 92.4984452,6.94444444 L92.4984452,6.61111111 L87.0562544,6.61111111 L87.0562544,6.94444444 C89.1146996,7.22222222 89.5658657,7.88888889 88.804523,9.77777778 L86.3513074,15.8888889 L83.1085512,8.44444444 C82.685583,7.47222222 82.9675618,7.08333333 84.574841,6.94444444 L84.574841,6.61111111 L76.820424,6.61111111 L76.820424,6.94444444 C78.2021201,7.13888889 78.6250883,7.44444444 79.2454417,8.77777778 L84.6030389,19.9722222 Z M97.6304594,19.6666667 C99.4351237,19.6666667 100.986007,18.6666667 102.170318,16.8055556 L102.170318,19.4444444 L107.809894,19.4444444 L107.809894,19.1111111 C106.230813,19.0555556 105.86424,18.8333333 105.86424,18.0555556 L105.86424,6.55555556 L100.140071,6.66666667 L100.140071,7 C101.690954,7.05555556 102.113922,7.52777778 102.113922,8.36111111 L102.113922,16.1944444 C101.380777,17.3333333 100.619435,17.9444444 99.604311,17.9444444 C98.1662191,17.9444444 97.5458657,17 97.5458657,15.2777778 L97.5458657,6.55555556 L91.849894,6.66666667 L91.849894,7 C93.4571731,7.02777778 93.7955477,7.52777778 93.7955477,8.36111111 L93.7955477,15.6111111 C93.7955477,18.3055556 95.2618375,19.6666667 97.6304594,19.6666667 L97.6304594,19.6666667 Z M117.256184,19.4444444 L123.939081,19.4444444 L123.939081,19.1111111 C122.75477,19.0833333 122.444594,18.8611111 122.444594,18.0833333 L122.444594,10.3888889 C122.444594,10.2777778 122.444594,10.1388889 122.416396,9.94444444 C123.234134,8.75 124.192862,8.11111111 124.926007,8.11111111 C126.335901,8.11111111 126.871661,9.08333333 126.871661,10.75 L126.871661,18.0833333 C126.871661,18.8611111 126.61788,19.0833333 125.489965,19.1111111 L125.489965,19.4444444 L132.567633,19.4444444 L132.567633,19.1111111 C130.932155,19.0833333 130.621979,18.8611111 130.621979,18.0833333 L130.621979,10.4722222 C130.621979,7.86111111 129.437668,6.47222222 127.069046,6.47222222 C125.320777,6.47222222 123.516113,7.63888889 122.36,9.36111111 C122.049823,7.47222222 120.89371,6.47222222 118.919859,6.47222222 C117.058799,6.47222222 115.451519,7.55555556 114.239011,9.33333333 L114.239011,6.55555556 L108.571237,6.80555556 L108.571237,7.13888889 C110.206714,7.16666667 110.545088,7.69444444 110.545088,8.52777778 L110.545088,18.0833333 C110.545088,18.8611111 110.206714,19.0833333 108.571237,19.1111111 L108.571237,19.4444444 L115.648905,19.4444444 L115.648905,19.1111111 C114.520989,19.0833333 114.295406,18.8611111 114.295406,18.0833333 L114.295406,9.94444444 C115.028551,8.83333333 115.648905,8.11111111 116.664028,8.11111111 C118.073922,8.11111111 118.694276,9.08333333 118.694276,10.75 L118.694276,18.0833333 C118.694276,18.8611111 118.412297,19.0833333 117.256184,19.1111111 L117.256184,19.4444444 Z" id="yum&amp;yum"></path>
                <g id="Group-7" transform="translate(56.395760, 0.000000)">
                    <path d="M14.7192933,4.66666667 C14.7192933,2.21425725 12.527949,0.37037037 9.20190813,0.37037037 C5.60953576,0.37037037 3.23335689,2.50950805 3.23335689,5.55555556 C3.23335689,7.23169882 3.94765886,8.59165716 5.62984394,10.219189 L5.81273414,9.44896781 C2.25061677,10.5994752 0.441766784,12.5399353 0.441766784,15.2222222 C0.441766784,18.2582825 2.80156682,20.3796296 6.24113074,20.3796296 C8.95292711,20.3796296 10.988769,19.2220368 12.4691261,17.0345834 L11.670626,17.0084648 C13.1420336,19.5305706 14.3201702,20.3796296 16.3923675,20.3796296 C18.0825116,20.3796296 19.7153238,19.4499542 21.3661418,17.6430392 L21.6473411,17.3352504 L21.3680758,17.0257575 L21.1424927,16.7757575 L20.8687684,16.4724054 L20.5276579,16.7000376 C19.7488188,17.2197779 19.4311062,17.3425926 18.9583746,17.3425926 C17.7024749,17.3425926 16.6087465,16.451843 14.8763548,13.6481727 L14.8922377,14.1017844 C15.6159045,12.725178 16.3811115,11.8691603 17.1833544,11.4331378 L16.9563251,11.0277778 L16.6743463,11.3981481 L16.7871378,11.4814815 L17.0691166,11.1111111 L16.623269,10.9647094 C16.5790882,11.0952772 16.5636897,11.1445765 16.546898,11.2190137 C16.5245985,11.3178664 16.5145583,11.4142995 16.5145583,11.5277778 C16.5145583,12.8548661 17.5574581,13.9351852 18.9019788,13.9351852 C20.2829384,13.9351852 21.3739929,12.8182365 21.3739929,11.4444444 C21.3739929,9.85458229 20.2030663,8.75925926 18.4790106,8.75925926 C16.6685075,8.75925926 14.8752836,10.3222523 13.672257,13.2718432 L14.5120139,13.2073775 C13.6662315,11.8097824 12.1484518,10.2179128 10.3192809,8.7266693 L10.193456,9.51347106 C13.207656,8.33151931 14.7192933,6.72901847 14.7192933,4.66666667 Z M9.10921904,8.94204414 L9.72001235,9.43999737 C11.473625,10.8696415 12.9228355,12.3895948 13.7046645,13.6815114 L14.1906153,14.4845104 L14.5444214,13.6170457 C15.6180352,10.9847503 17.1090278,9.68518519 18.4790106,9.68518519 C19.6945215,9.68518519 20.4340636,10.376977 20.4340636,11.4444444 C20.4340636,12.3146611 19.7555682,13.0092593 18.9019788,13.0092593 C18.0874266,13.0092593 17.4544876,12.3536104 17.4544876,11.5277778 C17.4544876,11.4797978 17.4575394,11.4504868 17.4644448,11.4198752 C17.4716212,11.3880624 17.4816009,11.3561117 17.5149642,11.2575129 L17.6220805,10.9409516 L17.3510954,10.7407407 L17.2383039,10.6574074 L16.9952794,10.4778545 L16.7292958,10.6224177 C15.7479028,11.1558091 14.8606444,12.1483627 14.0575857,13.6759934 L13.9360435,13.9071989 L14.0734685,14.1296051 C15.9588355,17.1808477 17.2943584,18.2685185 18.9583746,18.2685185 C19.6490329,18.2685185 20.1342274,18.0809623 21.0548156,17.466629 L20.7912367,17.0833333 L20.4399808,17.3909092 L20.6655638,17.6409092 L21.0168198,17.3333333 L20.6674978,17.0236274 C19.1783228,18.6536149 17.7731068,19.4537037 16.3923675,19.4537037 C14.7012635,19.4537037 13.8040625,18.8071092 12.4855578,16.5470908 L12.1076986,15.899411 L11.6870576,16.5209721 C10.3751506,18.4595148 8.62668488,19.4537037 6.24113074,19.4537037 C3.30245174,19.4537037 1.38169611,17.7270365 1.38169611,15.2222222 C1.38169611,12.9898434 2.89588018,11.3654888 6.10556975,10.32881 L6.8395281,10.0917531 L6.28845995,9.55858881 C4.77140812,8.09082517 4.17328622,6.95206187 4.17328622,5.55555556 C4.17328622,3.04042953 6.11068958,1.2962963 9.20190813,1.2962963 C12.0388234,1.2962963 13.779364,2.76085849 13.779364,4.66666667 C13.779364,6.28268486 12.5397108,7.59685283 9.8458373,8.65319561 L9.10921904,8.94204414 Z" id="Path"></path>
                    <path d="M11.4240616,16.575971 L11.4556633,16.0461872 C10.6072586,17.103184 9.59519472,17.6203704 8.46876325,17.6203704 C6.3829779,17.6203704 5.01922261,16.3246692 5.01922261,14.25 C5.01922261,12.776282 5.55017636,11.620721 6.69825259,10.5925648 L6.070517,10.5965686 C8.10148834,12.3686289 10.3661114,14.8824147 11.4240616,16.575971 Z M6.37803197,9.62798486 L6.0659877,9.90743515 C4.7240765,11.1091796 4.07929329,12.5124777 4.07929329,14.25 C4.07929329,16.8436896 5.87132598,18.5462963 8.46876325,18.5462963 C9.89271111,18.5462963 11.1718675,17.8926199 12.1929586,16.6204794 L12.396837,16.3664746 L12.2245603,16.0906956 C11.1130169,14.3113479 8.78885605,11.7314737 6.69372328,9.9034314 L6.37803197,9.62798486 Z" id="Path"></path>
                    <path d="M7.275053,4 C7.275053,2.56529702 7.97465733,1.74074074 9.03272085,1.74074074 C10.2023996,1.74074074 10.8467845,2.58904382 10.8467845,4.27777778 C10.8467845,6.07390956 10.4073648,7.11386066 9.14521728,8.208003 L9.78800425,8.22819131 C7.86174971,6.33063479 7.275053,5.31422961 7.275053,4 Z M9.43515372,9.19005467 L9.76616081,8.90310811 C11.2393251,7.62603752 11.7867138,6.33056198 11.7867138,4.27777778 C11.7867138,2.12636022 10.7904424,0.814814815 9.03272085,0.814814815 C7.41451096,0.814814815 6.33512367,2.08698472 6.33512367,4 C6.33512367,5.61105774 7.03783911,6.82845612 9.12337384,8.88291981 L9.43515372,9.19005467 Z" id="Path"></path>
                </g>
            </g>
        </g>
    </g>
</svg>