<?xml version="1.0" encoding="UTF-8" standalone="no"?>
<svg width="42px" height="42px" viewBox="0 0 42 42" version="1.1" xmlns="http://www.w3.org/2000/svg" xmlns:xlink="http://www.w3.org/1999/xlink">
    <!-- Generator: sketchtool 39.1 (31720) - http://www.bohemiancoding.com/sketch -->
    <title>6D3E8CD9-77C6-4A54-AF38-DF63D5BD3FE7</title>
    <desc>Created with sketchtool.</desc>
    <defs></defs>
    <g id="Symbols" stroke="none" stroke-width="1" fill="none" fill-rule="evenodd">
        <g id="Footer-Bar" transform="translate(-779.000000, -148.000000)">
            <g id="Footer">
                <g id="Twitter-Icon" transform="translate(780.000000, 149.000000)">
                    <circle id="Oval-2-Copy" stroke="#D0D0D0" cx="20" cy="20" r="20"></circle>
                    <path d="M30.0809877,14.98297 C29.4281628,15.2740945 28.8779935,15.2837185 28.2941404,14.9958019 C29.0464127,14.5450801 29.0808985,14.2282916 29.3527752,13.3765718 C28.6486227,13.7944118 27.8682805,14.0983683 27.0382145,14.2619755 C26.3749638,13.5546149 25.4278064,13.1111111 24.3795975,13.1111111 C22.3665874,13.1111111 20.7353273,14.7439751 20.7353273,16.7553813 C20.7353273,17.0408919 20.7674072,17.3191845 20.8291609,17.5862492 C17.8008237,17.434672 15.1149388,15.9838611 13.3176656,13.7783718 C13.0040851,14.3165112 12.824438,14.9428702 12.824438,15.6109329 C12.824438,16.8756807 13.4684409,17.9904553 14.4452721,18.6440821 C13.847785,18.6248342 13.2863878,18.461227 12.7955662,18.1885483 C12.7947642,18.2037862 12.7947642,18.2182221 12.7947642,18.2342621 C12.7947642,20.0002574 14.05069,21.4727222 15.7188419,21.8079566 C15.1847125,21.9531179 14.6217112,21.9755738 14.0723439,21.8713143 C14.5366996,23.3181152 15.8824491,24.3719381 17.4768173,24.4016119 C15.9169349,25.6238539 13.9833224,26.1331214 12.0809877,25.9101665 C13.6946038,26.9439395 15.6089684,27.5470405 17.6676923,27.5470405 C24.3707756,27.5470405 28.0358977,21.9940197 28.0358977,17.1780332 C28.0358977,17.019238 28.0334917,16.8628488 28.0262737,16.7064595 C28.7376442,16.193182 29.592572,15.7143904 30.0809877,14.98297" id="Page-1" fill="#D0D0D0"></path>
                </g>
            </g>
        </g>
    </g>
</svg>