<?xml version="1.0" encoding="UTF-8" standalone="no"?>
<svg width="42px" height="42px" viewBox="0 0 42 42" version="1.1" xmlns="http://www.w3.org/2000/svg" xmlns:xlink="http://www.w3.org/1999/xlink">
    <!-- Generator: sketchtool 39.1 (31720) - http://www.bohemiancoding.com/sketch -->
    <title>1C7A8947-1C4D-4265-BED6-D65A73D805B1</title>
    <desc>Created with sketchtool.</desc>
    <defs>
        <polygon id="path-1" points="21.8674907 7.94972166 21.8674907 15.8994389 0 15.8994389 0 7.94972166 0 4.42620603e-06 21.8674907 4.42620603e-06"></polygon>
    </defs>
    <g id="Symbols" stroke="none" stroke-width="1" fill="none" fill-rule="evenodd">
        <g id="Footer-Bar" transform="translate(-839.000000, -148.000000)">
            <g id="Footer">
                <g id="YouTube-Icon" transform="translate(840.000000, 149.000000)">
                    <circle id="Oval-2-Copy-2" stroke="#E3CDB1" cx="20" cy="20" r="20"></circle>
                    <g id="Page-1" transform="translate(9.459877, 12.055556)">
                        <mask id="mask-2" fill="white">
                            <use xlink:href="#path-1"></use>
                        </mask>
                        <g id="Clip-2"></g>
                        <path d="M9.14171339,9.95734044 L9.14088515,4.72908231 L14.0045641,7.35231984 L9.14171339,9.95734044 Z M19.8202377,3.8233549 C19.8202377,3.8233549 19.6443523,2.54108361 19.1046778,1.97641351 C18.4202031,1.23527604 17.6529753,1.23161444 17.301134,1.18822172 C14.7822946,1.00000443 11.0039033,1.00000443 11.0039033,1.00000443 L10.9960791,1.00000443 C10.9960791,1.00000443 7.21777592,1.00000443 4.6988484,1.18822172 C4.34698942,1.23161444 3.58004364,1.23527604 2.89532223,1.97641351 C2.35563009,2.54108361 2.18000899,3.8233549 2.18000899,3.8233549 C2.18000899,3.8233549 2,5.32914789 2,6.8349591 L2,8.24664345 C2,9.75241822 2.18000899,11.2582112 2.18000899,11.2582112 C2.18000899,11.2582112 2.35563009,12.5405007 2.89532223,13.1051708 C3.58004364,13.8462901 4.47947181,13.8228631 4.88005569,13.9005401 C6.32009234,14.0432879 11.0000088,14.087464 11.0000088,14.087464 C11.0000088,14.087464 14.7822946,14.0815617 17.301134,13.8933444 C17.6529753,13.8499699 18.4202031,13.8462901 19.1046778,13.1051708 C19.6443523,12.5405007 19.8202377,11.2582112 19.8202377,11.2582112 C19.8202377,11.2582112 20,9.75241822 20,8.24664345 L20,6.8349591 C20,5.32914789 19.8202377,3.8233549 19.8202377,3.8233549 L19.8202377,3.8233549 Z" id="Fill-1" fill="#E3CDB1" mask="url(#mask-2)"></path>
                    </g>
                </g>
            </g>
        </g>
    </g>
</svg>